<?xml version="1.0" encoding="utf-8"?>
<!-- Generator: Adobe Illustrator 19.1.0, SVG Export Plug-In . SVG Version: 6.00 Build 0)  -->
<svg version="1.1" xmlns="http://www.w3.org/2000/svg" xmlns:xlink="http://www.w3.org/1999/xlink" x="0px" y="0px"
	 viewBox="-34 -184.5 1100 930" style="enable-background:new -34 -184.5 1100 930;" xml:space="preserve">
<style type="text/css">
	.st0{fill:none;}
	.st1{fill:url(#SVGID_1_);stroke:#232323;stroke-width:20;stroke-miterlimit:10;stroke-opacity:0.9;}
	.st2{fill:none;stroke:#FF7F00;stroke-width:4.5;stroke-opacity:0.698;}
	.st3{fill:none;stroke:#FF7F00;stroke-width:4;stroke-opacity:0.698;}
	.st4{fill:none;stroke:#FF7F00;stroke-width:3.5;stroke-opacity:0.698;}
	.st5{fill:none;stroke:#FF7F00;stroke-width:3;stroke-opacity:0.698;}
	.st6{fill:none;stroke:#FF7F00;stroke-width:2;stroke-opacity:0.698;}
	.st7{fill:none;stroke:#FF7F00;stroke-width:1.5;stroke-opacity:0.698;}
	.st8{fill:none;stroke:#FF7F00;stroke-opacity:0.698;}
	.st9{fill:none;stroke:#FF7F00;stroke-width:0.5;stroke-opacity:0.698;}
	.st10{fill:none;stroke:#F14C0E;stroke-width:3;stroke-opacity:0.698;}
	.st11{fill:none;stroke:#F14C0E;stroke-opacity:0.698;}
	.st12{fill:none;stroke:#9B7E5C;stroke-width:2.5;stroke-opacity:0.698;}
	.st13{fill:none;stroke:#8D4C6A;stroke-width:4.5;stroke-opacity:0.698;}
	.st14{fill:none;stroke:#F14C0E;stroke-width:0.5;stroke-opacity:0.698;}
	.st15{fill:none;stroke:#377EB8;stroke-width:0.5;stroke-opacity:0.698;}
	.st16{fill:none;stroke:#F14C0E;stroke-width:4;stroke-opacity:0.698;}
	.st17{fill:none;stroke:#F14C0E;stroke-width:2;stroke-opacity:0.698;}
	.st18{fill:none;stroke:#F14C0E;stroke-width:1.5;stroke-opacity:0.698;}
	.st19{fill:none;stroke:#E41A1C;stroke-width:13;stroke-opacity:0.698;}
	.st20{fill:none;stroke:#8D4C6A;stroke-opacity:0.698;}
	.st21{fill:none;stroke:#8D4C6A;stroke-width:0.5;stroke-opacity:0.698;}
	.st22{fill:none;stroke:#377EB8;stroke-width:2;stroke-opacity:0.698;}
	.st23{fill:none;stroke:#BE345F;stroke-opacity:0.698;}
	.st24{fill:none;stroke:#6766AD;stroke-opacity:0.698;}
	.st25{fill:none;stroke:#BE345F;stroke-width:1.5;stroke-opacity:0.698;}
	.st26{fill:none;stroke:#BE345F;stroke-width:0.5;stroke-opacity:0.698;}
	.st27{fill:none;stroke:#984EA3;stroke-opacity:0.698;}
	.st28{fill:none;stroke:#984EA3;stroke-width:0.5;stroke-opacity:0.698;}
	.st29{fill:none;stroke:#E41A1C;stroke-width:2.5;stroke-opacity:0.698;}
	.st30{fill:none;stroke:#E41A1C;stroke-width:5.5;stroke-opacity:0.698;}
	.st31{fill:none;stroke:#E41A1C;stroke-width:0.5;stroke-opacity:0.698;}
	.st32{fill:none;stroke:#E41A1C;stroke-width:7;stroke-opacity:0.698;}
	.st33{fill:none;stroke:#E41A1C;stroke-width:1.5;stroke-opacity:0.698;}
	.st34{fill:none;stroke:#986433;stroke-width:0.5;stroke-opacity:0.698;}
	.st35{fill:none;stroke:#4DAF4A;stroke-opacity:0.698;}
	.st36{fill:none;stroke:#E41A1C;stroke-opacity:0.698;}
	.st37{fill:none;stroke:#377EB8;stroke-opacity:0.698;}
	.st38{fill:none;stroke:#4DAF4A;stroke-width:0.5;stroke-opacity:0.698;}
	.st39{fill:none;stroke:#F781BF;stroke-width:0.5;stroke-opacity:0.698;}
	.st40{fill:#FF7F00;stroke:#333333;stroke-width:0.5;}
	.st41{fill:#E41A1C;stroke:#333333;stroke-width:0.5;}
	.st42{fill:#377EB8;stroke:#333333;stroke-width:0.5;}
	.st43{fill:#984EA3;stroke:#333333;stroke-width:0.5;}
	.st44{fill:#4DAF4A;stroke:#333333;stroke-width:0.5;}
	.st45{fill:#F781BF;stroke:#333333;stroke-width:0.5;}
	.st46{font-family:'AlegreyaSC-Regular';}
	.st47{font-size:47.5796px;}
	.st48{enable-background:new    ;}
	.st49{fill:none;stroke:#FFFFFF;stroke-width:0.4688;stroke-linecap:round;stroke-linejoin:round;}
	.st50{font-size:44.4076px;}
	.st51{fill:none;stroke:#FFFFFF;stroke-width:0.4375;stroke-linecap:round;stroke-linejoin:round;}
	.st52{font-size:50.7516px;}
	.st53{fill:none;stroke:#FFFFFF;stroke-width:0.5;stroke-linecap:round;stroke-linejoin:round;}
	.st54{font-size:38.0637px;}
	.st55{fill:none;stroke:#FFFFFF;stroke-width:0.375;stroke-linecap:round;stroke-linejoin:round;}
	.st56{font-size:41.2357px;}
	.st57{fill:none;stroke:#FFFFFF;stroke-width:0.4062;stroke-linecap:round;stroke-linejoin:round;}
	.st58{font-size:22.2038px;}
	.st59{fill:none;stroke:#FFFFFF;stroke-width:0.2188;stroke-linecap:round;stroke-linejoin:round;}
	.st60{font-size:28.5478px;}
	.st61{fill:none;stroke:#FFFFFF;stroke-width:0.2812;stroke-linecap:round;stroke-linejoin:round;}
	.st62{font-size:53.9236px;}
	.st63{fill:none;stroke:#FFFFFF;stroke-width:0.5312;stroke-linecap:round;stroke-linejoin:round;}
	.st64{font-size:34.8917px;}
	.st65{fill:none;stroke:#FFFFFF;stroke-width:0.3438;stroke-linecap:round;stroke-linejoin:round;}
	.st66{font-size:25.3758px;}
	.st67{fill:none;stroke:#FFFFFF;stroke-width:0.25;stroke-linecap:round;stroke-linejoin:round;}
	.st68{font-size:31.7197px;}
	.st69{fill:none;stroke:#FFFFFF;stroke-width:0.3125;stroke-linecap:round;stroke-linejoin:round;}
</style>
<pattern  x="18" y="701" width="500" height="500" patternUnits="userSpaceOnUse" id="Rice_paper" viewBox="0 -500 500 500" style="overflow:visible;">
	<g>
		<polygon class="st0" points="0,-500 500,-500 500,0 0,0 		"/>
		
			<image style="overflow:visible;" width="500" height="500" id="XMLID_4_" xlink:href="../../../../../../Users/skalugin/Downloads/pink_rice/pink_rice_bw.png"  transform="matrix(1 0 0 1 0 -500)">
		</image>
	</g>
</pattern>
<g id="Layer_1">
	<pattern  id="SVGID_1_" xlink:href="#Rice_paper" patternTransform="matrix(1.2089 0 0 1.4856 1479.6467 2770.4617)">
	</pattern>
	<rect x="-34" y="-184.5" class="st1" width="1100" height="930"/>
	<g id="edges">
		<path class="st2" d="M293.9,467.3c10.4-37.3,82-77.7,119.3-67.3"/>
		<path class="st3" d="M322.3,601.9c-22.2-58.6,32.3-179.7,90.9-201.9"/>
		<path class="st4" d="M322.3,601.9c-32.6-21.2-49.7-102-28.5-134.6"/>
		<path class="st4" d="M425,522.7c-26.9-22.2-34-95.9-11.8-122.8"/>
		<path class="st5" d="M425,522.7c-37.3,15.1-116-18.1-131.1-55.5"/>
		<path class="st6" d="M425,522.7c-4.7,36.4-66.3,83.8-102.7,79.1"/>
		<path class="st7" d="M165.2,466.2c36.4-62.8,185.1-102.6,248-66.2"/>
		<path class="st6" d="M165.2,466.2c26-25.5,103.1-24.9,128.7,1.1"/>
		<path class="st6" d="M165.2,466.2c58.6-4.3,152.8,77.1,157.1,135.7"/>
		<path class="st8" d="M165.2,466.2c63.3-40.6,219.1-6.7,259.8,56.6"/>
		<path class="st7" d="M217.4,340.9c51-27.4,168.5,8.1,195.8,59"/>
		<path class="st7" d="M217.4,340.9c40.6,10,86.5,85.8,76.5,126.3"/>
		<path class="st9" d="M217.4,340.9c73.2,31.2,136.2,187.8,105,260.9"/>
		<path class="st8" d="M217.4,340.9c77.9-5.2,202.5,103.9,207.6,181.8"/>
		<path class="st9" d="M217.4,340.9c14.6,35.5-16.7,110.6-52.1,125.2"/>
		<path class="st10" d="M650.5,197.1c-6.9,88-149.3,209.8-237.3,202.9"/>
		<path class="st11" d="M650.5,197.1c-17.3,125.4-231.3,287.5-356.6,270.2"/>
		<path class="st11" d="M650.5,197.1c15.3,146.6-181.6,389.5-328.2,404.8"/>
		<path class="st12" d="M645.1,408.9c-48.2,44.6-187.3,39.2-231.9-8.9"/>
		<path class="st13" d="M645.1,408.9c-41.3-43.4-38-170.5,5.5-211.8"/>
		<path class="st9" d="M545.5,564.2c-69.7,30.9-220.7-27.2-251.6-97"/>
		<path class="st9" d="M545.5,564.2c-37.1,52.2-171,74.8-223.2,37.6"/>
		<path class="st6" d="M545.5,564.2c-32.4,15.8-104.7-9.1-120.5-41.5"/>
		<path class="st14" d="M545.5,564.2c-52.4-94.4,10.6-314.7,105-367.2"/>
		<path class="st5" d="M465.6,680.1c-66.5-45.5-98-213.6-52.4-280.1"/>
		<path class="st7" d="M465.6,680.1c-76.9-8.2-180-135.9-171.7-212.8"/>
		<path class="st7" d="M465.6,680.1c-44.3,13-130.3-33.9-143.3-78.2"/>
		<path class="st7" d="M465.6,680.1c-39.6-23.3-64-117.7-40.6-157.3"/>
		<path class="st14" d="M465.6,680.1C406,546.5,517,256.7,650.5,197.1"/>
		<path class="st7" d="M465.6,680.1c-7.2-39.1,40.7-108.6,79.9-115.8"/>
		<path class="st15" d="M706.9,511.8c-32.9-8.2-70-70-61.8-102.9"/>
		<path class="st8" d="M203.5,619.9C201.4,534,327.3,402,413.2,400"/>
		<path class="st7" d="M203.5,619.9c-12.5-48.6,41.8-140.2,90.4-152.7"/>
		<path class="st7" d="M203.5,619.9c20.2-27.4,91.5-38.2,118.9-18.1"/>
		<path class="st8" d="M203.5,619.9c24.9-63.8,157.8-122.1,221.5-97.2"/>
		<path class="st7" d="M203.5,619.9c-38.4-23.1-61.4-115.4-38.2-153.8"/>
		<path class="st9" d="M203.5,619.9c-53-58.6-44.7-226,13.9-279"/>
		<path class="st9" d="M563.5,630.2c-76.1-16-166.3-154.1-150.3-230.2"/>
		<path class="st9" d="M563.5,630.2c-9.6,29.5-68.3,59.5-97.9,49.9"/>
		<path class="st16" d="M495.2,224.1c18.8,51.6-30.4,157.1-82,175.9"/>
		<path class="st17" d="M495.2,224.1c8.4,88.9-112.4,234.8-201.3,243.2"/>
		<path class="st11" d="M495.2,224.1c41,110.1-62.7,336.8-172.9,377.8"/>
		<path class="st18" d="M495.2,224.1c45.7,73.8,3.6,253-70.2,298.7"/>
		<path class="st11" d="M495.2,224.1c-17.6,114.4-215.6,259.7-330,242.1"/>
		<path class="st11" d="M495.2,224.1C463,303,296.3,373.1,217.4,340.9"/>
		<path class="st19" d="M495.2,224.1c25.7-36.5,118.9-52.7,155.3-27"/>
		<path class="st20" d="M495.2,224.1c66.9,7,156.9,117.9,149.9,184.8"/>
		<path class="st18" d="M495.2,224.1c78.1,58,108.3,262.1,50.3,340.2"/>
		<path class="st14" d="M495.2,224.1c85.3,97.1,67.5,370.7-29.6,456"/>
		<path class="st14" d="M495.2,224.1C516,361.6,341,599.1,203.5,619.9"/>
		<path class="st21" d="M788.9,453.6c-79-23.6-162-177.6-138.4-256.5"/>
		<path class="st22" d="M788.9,453.6c-37.7,19.8-124-7-143.9-44.7"/>
		<path class="st21" d="M788.9,453.6C684.3,466.4,508,328.7,495.2,224.1"/>
		<path class="st23" d="M677.1,45c25.1,35.7,9.1,126.9-26.6,152"/>
		<path class="st24" d="M677.1,45c66.4,79.2,47.1,297.5-32,363.8"/>
		<path class="st23" d="M677.1,45c-0.6,72.2-109.7,179.6-181.9,179"/>
		<path class="st25" d="M470-37.3c83,10.8,191.3,151.4,180.5,234.4"/>
		<path class="st26" d="M470-37.3c57.3,47.2,72.4,204.1,25.2,261.4"/>
		<path class="st27" d="M470-37.3c57.9-25,182.2,24.5,207.1,82.4"/>
		<path class="st23" d="M576-27.4c59.8,30,104.5,164.7,74.5,224.5"/>
		<path class="st23" d="M576-27.4c34.1,66.5-14.4,217.3-80.8,251.5"/>
		<path class="st28" d="M576-27.4c34.7-5.7,95.4,37.7,101.1,72.4"/>
		<path class="st28" d="M576-27.4c-23.2,19.2-86.8,13.3-106-9.9"/>
		<path class="st23" d="M662.3-74.3c26.3,93.1-74,272.1-167.1,298.4"/>
		<path class="st28" d="M662.3-74.3C689.1-53.4,698,18.2,677.1,45"/>
		<path class="st28" d="M662.3-74.3c-31.1,45.9-146.4,68-192.3,37"/>
		<path class="st28" d="M662.3-74.3c-7.9,26.6-59.6,54.8-86.3,46.9"/>
		<path class="st29" d="M522.3,68.3c51.4,0.1,128.3,77.3,128.2,128.7"/>
		<path class="st30" d="M522.3,68.3c25.7,36.6,9.4,130-27.1,155.7"/>
		<path class="st26" d="M522.3,68.3c-31.6-10.7-63-74-52.4-105.6"/>
		<path class="st25" d="M522.3,68.3C513.9,38.5,546.1-19,576-27.4"/>
		<path class="st23" d="M522.3,68.3c-0.5-56.5,83.4-142.1,139.9-142.6"/>
		<path class="st31" d="M829.8,226.6c-41.8,29.9-149.3,12.2-179.3-29.5"/>
		<path class="st30" d="M585.7,129.1c26.6,0.6,65.5,41.4,64.8,68"/>
		<path class="st32" d="M585.7,129.1c0.9,37.1-53.4,94.1-90.5,95"/>
		<path class="st26" d="M585.7,129.1c1.5-35.1,56.3-85.5,91.4-84"/>
		<path class="st26" d="M585.7,129.1c-33.2-29.4-39-123.2-9.7-156.5"/>
		<path class="st33" d="M585.7,129.1c-24.8,0.5-62.8-35.9-63.4-60.7"/>
		<path class="st21" d="M878.8,299.1c-66.1,25.2-203-36-228.2-102.1"/>
		<path class="st34" d="M879.8,105.1c-27.5,64.2-165,119.4-229.2,92"/>
		<path class="st34" d="M805.4,46.7c-0.9,61-93.8,151.3-154.9,150.3"/>
		<path class="st34" d="M805.4,46.7c-26.6,97.5-212.7,203.9-310.2,177.3"/>
		<path class="st35" d="M805.4,46.7c26.6-3.2,71.2,31.8,74.4,58.4"/>
		<path class="st9" d="M595.1,480.4C542.6,495,428,445.3,413.2,400"/>
		<path class="st36" d="M448.7,123.4c55.1-25.6,176.2,18.6,201.8,73.7"/>
		<path class="st31" d="M448.7,123.4c29.4,10.8,57.3,71.3,46.5,100.7"/>
		<path class="st20" d="M814.2,357.2c-64.8,0.7-162.9-95.4-163.7-160.1"/>
		<path class="st37" d="M814.2,357.2c-23.5,44.2-125,75.1-169.1,51.7"/>
		<path class="st20" d="M814.2,357.2c-90.4,37.2-281.8-42.7-319-133.1"/>
		<path class="st15" d="M814.2,357.2c1.3-24.5,40.1-59.4,64.6-58.1"/>
		<path class="st26" d="M528.7-121.3C616.8-82,689.8,109,650.5,197.1"/>
		<path class="st27" d="M528.7-121.3c5,28.5-30.2,78.9-58.8,83.9"/>
		<path class="st27" d="M528.7-121.3c28.2,9.3,56.6,65.6,47.3,93.9"/>
		<path class="st26" d="M528.7-121.3c36.6,39.2,32.8,153-6.4,189.6"/>
		<path class="st38" d="M1004.8,71.8c-18.4,31.7-93.4,51.6-125.1,33.3"/>
		<path class="st39" d="M131.3,167.9c-33.2-61.1,8.5-202.5,69.6-235.8"/>
		<path class="st39" d="M131.3,167.9c14.2-56,119.4-118.6,175.3-104.5"/>
		<path class="st39" d="M131.3,167.9C84.6,162.8,22.3,85,27.5,38.3"/>
		<path class="st39" d="M200.9-67.9C248.3-62.7,311.8,16,306.7,63.5"/>
		<path class="st39" d="M306.7,63.5C245.8,114.3,78.3,99.2,27.5,38.3"/>
		<path class="st39" d="M27.5,38.3C40.9-17.6,145-81.3,200.9-67.9"/>
	</g>
	<g id="nodes">
		<circle class="st40" cx="413" cy="396.1" r="30.6"/>
		<circle class="st40" cx="293.7" cy="463.4" r="30.2"/>
		<circle class="st40" cx="322.2" cy="598" r="30.2"/>
		<circle class="st40" cx="424.8" cy="518.9" r="27.5"/>
		<circle class="st40" cx="165" cy="462.3" r="24.5"/>
		<circle class="st40" cx="217.2" cy="337" r="24.5"/>
		<circle class="st41" cx="650.4" cy="193.2" r="36"/>
		<circle class="st42" cx="644.9" cy="405" r="21.1"/>
		<circle class="st40" cx="545.3" cy="560.4" r="23.7"/>
		<circle class="st40" cx="465.4" cy="676.2" r="26.2"/>
		<circle class="st42" cx="706.7" cy="507.9" r="10.4"/>
		<circle class="st40" cx="203.3" cy="616.1" r="24.5"/>
		<circle class="st40" cx="563.3" cy="626.3" r="13.2"/>
		<circle class="st41" cx="495" cy="220.2" r="41.2"/>
		<circle class="st42" cx="788.7" cy="449.7" r="16.8"/>
		<circle class="st43" cx="676.9" cy="41.2" r="21.8"/>
		<circle class="st43" cx="469.8" cy="-41.2" r="21.5"/>
		<circle class="st43" cx="575.8" cy="-31.3" r="22.6"/>
		<circle class="st43" cx="662.1" cy="-78.2" r="18.2"/>
		<circle class="st41" cx="522.2" cy="64.5" r="21.3"/>
		<circle class="st41" cx="829.6" cy="222.7" r="12.1"/>
		<circle class="st41" cx="585.5" cy="125.2" r="19.7"/>
		<circle class="st42" cx="878.6" cy="295.3" r="13"/>
		<circle class="st44" cx="879.6" cy="101.2" r="12.9"/>
		<circle class="st44" cx="805.2" cy="42.9" r="16"/>
		<circle class="st40" cx="595.1" cy="480.4" r="11.4"/>
		<circle class="st41" cx="448.6" cy="119.5" r="15.5"/>
		<circle class="st42" cx="814" cy="353.3" r="17.3"/>
		<circle class="st43" cx="528.6" cy="-125.1" r="16.2"/>
		<circle class="st44" cx="1004.6" cy="67.9" r="9.6"/>
		<circle class="st45" cx="131.2" cy="164.1" r="9.5"/>
		<circle class="st45" cx="200.7" cy="-71.7" r="9.5"/>
		<circle class="st45" cx="306.5" cy="59.6" r="9.5"/>
		<circle class="st45" cx="27.3" cy="34.4" r="9.5"/>
	</g>
	<g id="labels">
		<g>
			<text transform="matrix(1 0 0 1 449.1013 387.0646)" class="st46 st47">EN</text>
			<g class="st48">
				<text transform="matrix(1 0 0 1 449.1013 387.0646)" class="st49 st46 st47">EN</text>
			</g>
			<text transform="matrix(1 0 0 1 449.1013 387.0646)" class="st46 st47">EN</text>
		</g>
		<g>
			<text transform="matrix(1 0 0 1 263.5178 416.9278)" class="st46 st47">CM</text>
			<g class="st48">
				<text transform="matrix(1 0 0 1 263.5178 416.9278)" class="st49 st46 st47">CM</text>
			</g>
			<text transform="matrix(1 0 0 1 263.5178 416.9278)" class="st46 st47">CM</text>
		</g>
		<g>
			<text transform="matrix(1 0 0 1 284.5014 676.1837)" class="st46 st47">BO</text>
			<g class="st48">
				<text transform="matrix(1 0 0 1 284.5014 676.1837)" class="st49 st46 st47">BO</text>
			</g>
			<text transform="matrix(1 0 0 1 284.5014 676.1837)" class="st46 st47">BO</text>
		</g>
		<g>
			<text transform="matrix(1 0 0 1 456.243 500.9075)" class="st46 st47">CR</text>
			<g class="st48">
				<text transform="matrix(1 0 0 1 456.243 500.9075)" class="st49 st46 st47">CR</text>
			</g>
			<text transform="matrix(1 0 0 1 456.243 500.9075)" class="st46 st47">CR</text>
		</g>
		<g>
			<text transform="matrix(1 0 0 1 81.8935 476.7587)" class="st46 st50">FE</text>
			<g class="st48">
				<text transform="matrix(1 0 0 1 81.8935 476.7587)" class="st51 st46 st50">FE</text>
			</g>
			<text transform="matrix(1 0 0 1 81.8935 476.7587)" class="st46 st50">FE</text>
		</g>
		<g>
			<text transform="matrix(1 0 0 1 125.8185 336.0632)" class="st46 st50">IW</text>
			<g class="st48">
				<text transform="matrix(1 0 0 1 125.8185 336.0632)" class="st51 st46 st50">IW</text>
			</g>
			<text transform="matrix(1 0 0 1 125.8185 336.0632)" class="st46 st50">IW</text>
		</g>
		<g>
			<text transform="matrix(1 0 0 1 626.9168 208.3755)" class="st46 st52">JV</text>
			<g class="st48">
				<text transform="matrix(1 0 0 1 626.9168 208.3755)" class="st53 st46 st52">JV</text>
			</g>
			<text transform="matrix(1 0 0 1 626.9168 208.3755)" class="st46 st52">JV</text>
		</g>
		<g>
			<text transform="matrix(1 0 0 1 675.405 416.9278)" class="st46 st54">JA</text>
			<g class="st48">
				<text transform="matrix(1 0 0 1 675.405 416.9278)" class="st55 st46 st54">JA</text>
			</g>
			<text transform="matrix(1 0 0 1 675.405 416.9278)" class="st46 st54">JA</text>
		</g>
		<g>
			<text transform="matrix(1 0 0 1 577.818 578.6535)" class="st46 st56">GA</text>
			<g class="st48">
				<text transform="matrix(1 0 0 1 577.818 578.6535)" class="st57 st46 st56">GA</text>
			</g>
			<text transform="matrix(1 0 0 1 577.818 578.6535)" class="st46 st56">GA</text>
		</g>
		<g>
			<text transform="matrix(1 0 0 1 504.345 702.3726)" class="st46 st50">GV</text>
			<g class="st48">
				<text transform="matrix(1 0 0 1 504.345 702.3726)" class="st51 st46 st50">GV</text>
			</g>
			<text transform="matrix(1 0 0 1 504.345 702.3726)" class="st46 st50">GV</text>
		</g>
		<g>
			<text transform="matrix(1 0 0 1 717.0048 531.8943)" class="st46 st58">EP</text>
			<g class="st48">
				<text transform="matrix(1 0 0 1 717.0048 531.8943)" class="st59 st46 st58">EP</text>
			</g>
			<text transform="matrix(1 0 0 1 717.0048 531.8943)" class="st46 st58">EP</text>
		</g>
		<g>
			<text transform="matrix(1 0 0 1 121.003 633.0109)" class="st46 st50">JO</text>
			<g class="st48">
				<text transform="matrix(1 0 0 1 121.003 633.0109)" class="st51 st46 st50">JO</text>
			</g>
			<text transform="matrix(1 0 0 1 121.003 633.0109)" class="st46 st50">JO</text>
		</g>
		<g>
			<text transform="matrix(1 0 0 1 588.5302 637.1536)" class="st46 st60">GT</text>
			<g class="st48">
				<text transform="matrix(1 0 0 1 588.5302 637.1536)" class="st61 st46 st60">GT</text>
			</g>
			<text transform="matrix(1 0 0 1 588.5302 637.1536)" class="st46 st60">GT</text>
		</g>
		<g>
			<text transform="matrix(1 0 0 1 365.2357 251.0052)" class="st46 st62">MA</text>
			<g class="st48">
				<text transform="matrix(1 0 0 1 365.2357 251.0052)" class="st63 st46 st62">MA</text>
			</g>
			<text transform="matrix(1 0 0 1 365.2357 251.0052)" class="st46 st62">MA</text>
		</g>
		<g>
			<text transform="matrix(1 0 0 1 814.0015 461.782)" class="st46 st64">CJ</text>
			<g class="st48">
				<text transform="matrix(1 0 0 1 814.0015 461.782)" class="st65 st46 st64">CJ</text>
			</g>
			<text transform="matrix(1 0 0 1 814.0015 461.782)" class="st46 st64">CJ</text>
		</g>
		<g>
			<text transform="matrix(1 0 0 1 706.892 50.0793)" class="st46 st56">CX</text>
			<g class="st48">
				<text transform="matrix(1 0 0 1 706.892 50.0793)" class="st57 st46 st56">CX</text>
			</g>
			<text transform="matrix(1 0 0 1 706.892 50.0793)" class="st46 st56">CX</text>
		</g>
		<g>
			<text transform="matrix(1 0 0 1 391.7624 -48.5864)" class="st46 st56">BQ</text>
			<g class="st48">
				<text transform="matrix(1 0 0 1 391.7624 -48.5864)" class="st57 st46 st56">BQ</text>
			</g>
			<text transform="matrix(1 0 0 1 391.7624 -48.5864)" class="st46 st56">BQ</text>
		</g>
		<g>
			<text transform="matrix(1 0 0 1 605.2317 -14.6258)" class="st46 st56">MG</text>
			<g class="st48">
				<text transform="matrix(1 0 0 1 605.2317 -14.6258)" class="st57 st46 st56">MG</text>
			</g>
			<text transform="matrix(1 0 0 1 605.2317 -14.6258)" class="st46 st56">MG</text>
		</g>
		<g>
			<text transform="matrix(1 0 0 1 686.3454 -90.267)" class="st46 st64">DG</text>
			<g class="st48">
				<text transform="matrix(1 0 0 1 686.3454 -90.267)" class="st65 st46 st64">DG</text>
			</g>
			<text transform="matrix(1 0 0 1 686.3454 -90.267)" class="st46 st64">DG</text>
		</g>
		<g>
			<text transform="matrix(1 0 0 1 449.1012 64.4695)" class="st46 st56">GI</text>
			<g class="st48">
				<text transform="matrix(1 0 0 1 449.1012 64.4695)" class="st57 st46 st56">GI</text>
			</g>
			<text transform="matrix(1 0 0 1 449.1012 64.4695)" class="st46 st56">GI</text>
		</g>
		<g>
			<text transform="matrix(1 0 0 1 846.4745 232.0599)" class="st46 st66">BZ</text>
			<g class="st48">
				<text transform="matrix(1 0 0 1 846.4745 232.0599)" class="st67 st46 st66">BZ</text>
			</g>
			<text transform="matrix(1 0 0 1 846.4745 232.0599)" class="st46 st66">BZ</text>
		</g>
		<g>
			<text transform="matrix(1 0 0 1 614.3552 121.8965)" class="st46 st54">CO</text>
			<g class="st48">
				<text transform="matrix(1 0 0 1 614.3552 121.8965)" class="st55 st46 st54">CO</text>
			</g>
			<text transform="matrix(1 0 0 1 614.3552 121.8965)" class="st46 st54">CO</text>
		</g>
		<g>
			<text transform="matrix(1 0 0 1 897.5678 305.0988)" class="st46 st60">AZ</text>
			<g class="st48">
				<text transform="matrix(1 0 0 1 897.5678 305.0988)" class="st61 st46 st60">AZ</text>
			</g>
			<text transform="matrix(1 0 0 1 897.5678 305.0988)" class="st46 st60">AZ</text>
		</g>
		<g>
			<text transform="matrix(1 0 0 1 879.7642 140.4569)" class="st46 st60">CY</text>
			<g class="st48">
				<text transform="matrix(1 0 0 1 879.7642 140.4569)" class="st61 st46 st60">CY</text>
			</g>
			<text transform="matrix(1 0 0 1 879.7642 140.4569)" class="st46 st60">CY</text>
		</g>
		<g>
			<text transform="matrix(1 0 0 1 821.1701 34.4399)" class="st46 st68">DJ</text>
			<g class="st48">
				<text transform="matrix(1 0 0 1 821.1701 34.4399)" class="st69 st46 st68">DJ</text>
			</g>
			<text transform="matrix(1 0 0 1 821.1701 34.4399)" class="st46 st68">DJ</text>
		</g>
		<g>
			<text transform="matrix(1 0 0 1 609.6196 505.9198)" class="st46 st66">WA</text>
			<g class="st48">
				<text transform="matrix(1 0 0 1 609.6196 505.9198)" class="st67 st46 st66">WA</text>
			</g>
			<text transform="matrix(1 0 0 1 609.6196 505.9198)" class="st46 st66">WA</text>
		</g>
		<g>
			<text transform="matrix(1 0 0 1 382.3992 121.0534)" class="st46 st68">SW</text>
			<g class="st48">
				<text transform="matrix(1 0 0 1 382.3992 121.0534)" class="st69 st46 st68">SW</text>
			</g>
			<text transform="matrix(1 0 0 1 382.3992 121.0534)" class="st46 st68">SW</text>
		</g>
		<g>
			<text transform="matrix(1 0 0 1 837.6637 364.5322)" class="st46 st64">TH</text>
			<g class="st48">
				<text transform="matrix(1 0 0 1 837.6637 364.5322)" class="st65 st46 st64">TH</text>
			</g>
			<text transform="matrix(1 0 0 1 837.6637 364.5322)" class="st46 st64">TH</text>
		</g>
		<g>
			<text transform="matrix(1 0 0 1 551.8063 -121.2605)" class="st46 st68">NI</text>
			<g class="st48">
				<text transform="matrix(1 0 0 1 551.8063 -121.2605)" class="st69 st46 st68">NI</text>
			</g>
			<text transform="matrix(1 0 0 1 551.8063 -121.2605)" class="st46 st68">NI</text>
		</g>
		<g>
			<text transform="matrix(1 0 0 1 962.7 58.363)" class="st46 st58">CZ</text>
			<g class="st48">
				<text transform="matrix(1 0 0 1 962.7 58.363)" class="st59 st46 st58">CZ</text>
			</g>
			<text transform="matrix(1 0 0 1 962.7 58.363)" class="st46 st58">CZ</text>
		</g>
		<g>
			<text transform="matrix(1 0 0 1 146.5947 171.5781)" class="st46 st58">BX</text>
			<g class="st48">
				<text transform="matrix(1 0 0 1 146.5947 171.5781)" class="st59 st46 st58">BX</text>
			</g>
			<text transform="matrix(1 0 0 1 146.5947 171.5781)" class="st46 st58">BX</text>
		</g>
		<g>
			<text transform="matrix(1 0 0 1 219.0149 -62.6991)" class="st46 st58">BY</text>
			<g class="st48">
				<text transform="matrix(1 0 0 1 219.0149 -62.6991)" class="st59 st46 st58">BY</text>
			</g>
			<text transform="matrix(1 0 0 1 219.0149 -62.6991)" class="st46 st58">BY</text>
		</g>
		<g>
			<text transform="matrix(1 0 0 1 322.8878 66.9439)" class="st46 st58">XA</text>
			<g class="st48">
				<text transform="matrix(1 0 0 1 322.8878 66.9439)" class="st59 st46 st58">XA</text>
			</g>
			<text transform="matrix(1 0 0 1 322.8878 66.9439)" class="st46 st58">XA</text>
		</g>
		<g>
			<text transform="matrix(1 0 0 1 47.7215 43.2138)" class="st46 st58">XB</text>
			<g class="st48">
				<text transform="matrix(1 0 0 1 47.7215 43.2138)" class="st59 st46 st58">XB</text>
			</g>
			<text transform="matrix(1 0 0 1 47.7215 43.2138)" class="st46 st58">XB</text>
		</g>
	</g>
</g>
<g id="Assets">
	
		<image style="overflow:visible;" width="500" height="500" id="XMLID_1070_" xlink:href="../../../../../../Users/skalugin/Downloads/pink_rice/pink_rice_bw.png"  transform="matrix(1 0 0 1 -612.5451 -340.267)">
	</image>
</g>
</svg>
