<?xml version="1.0" encoding="utf-8"?>
<!-- Generator: Adobe Illustrator 19.1.0, SVG Export Plug-In . SVG Version: 6.00 Build 0)  -->
<svg version="1.1" id="Layer_1" xmlns="http://www.w3.org/2000/svg" xmlns:xlink="http://www.w3.org/1999/xlink" x="0px" y="0px"
	 viewBox="128 -233 1216.3 1027" style="enable-background:new 128 -233 1216.3 1027;" xml:space="preserve">
<style type="text/css">
	.st0{fill:none;stroke:#FF7F00;stroke-width:4.5;stroke-opacity:0.8;}
	.st1{fill:none;stroke:#FF7F00;stroke-width:4;stroke-opacity:0.8;}
	.st2{fill:none;stroke:#FF7F00;stroke-width:3.5;stroke-opacity:0.8;}
	.st3{fill:none;stroke:#FF7F00;stroke-width:3;stroke-opacity:0.8;}
	.st4{fill:none;stroke:#FF7F00;stroke-width:2;stroke-opacity:0.8;}
	.st5{fill:none;stroke:#FF7F00;stroke-width:1.5;stroke-opacity:0.8;}
	.st6{fill:none;stroke:#FF7F00;stroke-opacity:0.8;}
	.st7{fill:none;stroke:#FF7F00;stroke-width:0.5;stroke-opacity:0.8;}
	.st8{fill:none;stroke:#F14C0E;stroke-width:3;stroke-opacity:0.8;}
	.st9{fill:none;stroke:#F14C0E;stroke-opacity:0.8;}
	.st10{fill:none;stroke:#9B7E5C;stroke-width:2.5;stroke-opacity:0.8;}
	.st11{fill:none;stroke:#8D4C6A;stroke-width:4.5;stroke-opacity:0.8;}
	.st12{fill:none;stroke:#F14C0E;stroke-width:0.5;stroke-opacity:0.8;}
	.st13{fill:none;stroke:#377EB8;stroke-width:0.5;stroke-opacity:0.8;}
	.st14{fill:none;stroke:#F14C0E;stroke-width:4;stroke-opacity:0.8;}
	.st15{fill:none;stroke:#F14C0E;stroke-width:2;stroke-opacity:0.8;}
	.st16{fill:none;stroke:#F14C0E;stroke-width:1.5;stroke-opacity:0.8;}
	.st17{fill:none;stroke:#E41A1C;stroke-width:13;stroke-opacity:0.8;}
	.st18{fill:none;stroke:#8D4C6A;stroke-opacity:0.8;}
	.st19{fill:none;stroke:#8D4C6A;stroke-width:0.5;stroke-opacity:0.8;}
	.st20{fill:none;stroke:#377EB8;stroke-width:2;stroke-opacity:0.8;}
	.st21{fill:none;stroke:#BE345F;stroke-opacity:0.8;}
	.st22{fill:none;stroke:#6766AD;stroke-opacity:0.8;}
	.st23{fill:none;stroke:#BE345F;stroke-width:1.5;stroke-opacity:0.8;}
	.st24{fill:none;stroke:#BE345F;stroke-width:0.5;stroke-opacity:0.8;}
	.st25{fill:none;stroke:#984EA3;stroke-opacity:0.8;}
	.st26{fill:none;stroke:#984EA3;stroke-width:0.5;stroke-opacity:0.8;}
	.st27{fill:none;stroke:#E41A1C;stroke-width:2.5;stroke-opacity:0.8;}
	.st28{fill:none;stroke:#E41A1C;stroke-width:5.5;stroke-opacity:0.8;}
	.st29{fill:none;stroke:#E41A1C;stroke-width:0.5;stroke-opacity:0.8;}
	.st30{fill:none;stroke:#E41A1C;stroke-width:7;stroke-opacity:0.8;}
	.st31{fill:none;stroke:#E41A1C;stroke-width:1.5;stroke-opacity:0.8;}
	.st32{fill:none;stroke:#986433;stroke-width:0.5;stroke-opacity:0.8;}
	.st33{fill:none;stroke:#4DAF4A;stroke-opacity:0.8;}
	.st34{fill:none;stroke:#E41A1C;stroke-opacity:0.8;}
	.st35{fill:none;stroke:#377EB8;stroke-opacity:0.8;}
	.st36{fill:none;stroke:#4DAF4A;stroke-width:0.5;stroke-opacity:0.8;}
	.st37{fill:none;stroke:#F781BF;stroke-width:0.5;stroke-opacity:0.8;}
	.st38{fill:#FF7F00;stroke:#333333;stroke-width:0.5;}
	.st39{fill:#E41A1C;stroke:#333333;stroke-width:0.5;}
	.st40{fill:#377EB8;stroke:#333333;stroke-width:0.5;}
	.st41{fill:#984EA3;stroke:#333333;stroke-width:0.5;}
	.st42{fill:#4DAF4A;stroke:#333333;stroke-width:0.5;}
	.st43{fill:#F781BF;stroke:#333333;stroke-width:0.5;}
	.st44{font-family:'AlegreyaSC-Regular';}
	.st45{font-size:47.5796px;}
	.st46{enable-background:new    ;}
	.st47{fill:none;stroke:#FFFFFF;stroke-width:0.4688;stroke-linecap:round;stroke-linejoin:round;}
	.st48{font-size:44.4076px;}
	.st49{fill:none;stroke:#FFFFFF;stroke-width:0.4375;stroke-linecap:round;stroke-linejoin:round;}
	.st50{font-size:50.7516px;}
	.st51{fill:none;stroke:#FFFFFF;stroke-width:0.5;stroke-linecap:round;stroke-linejoin:round;}
	.st52{font-size:38.0637px;}
	.st53{fill:none;stroke:#FFFFFF;stroke-width:0.375;stroke-linecap:round;stroke-linejoin:round;}
	.st54{font-size:41.2357px;}
	.st55{fill:none;stroke:#FFFFFF;stroke-width:0.4062;stroke-linecap:round;stroke-linejoin:round;}
	.st56{font-size:22.2038px;}
	.st57{fill:none;stroke:#FFFFFF;stroke-width:0.2188;stroke-linecap:round;stroke-linejoin:round;}
	.st58{font-size:28.5478px;}
	.st59{fill:none;stroke:#FFFFFF;stroke-width:0.2812;stroke-linecap:round;stroke-linejoin:round;}
	.st60{font-size:53.9236px;}
	.st61{fill:none;stroke:#FFFFFF;stroke-width:0.5312;stroke-linecap:round;stroke-linejoin:round;}
	.st62{font-size:34.8917px;}
	.st63{fill:none;stroke:#FFFFFF;stroke-width:0.3438;stroke-linecap:round;stroke-linejoin:round;}
	.st64{font-size:25.3758px;}
	.st65{fill:none;stroke:#FFFFFF;stroke-width:0.25;stroke-linecap:round;stroke-linejoin:round;}
	.st66{font-size:31.7197px;}
	.st67{fill:none;stroke:#FFFFFF;stroke-width:0.3125;stroke-linecap:round;stroke-linejoin:round;}
</style>
<g>
	<g id="edges">
		<path class="st0" d="M486.6,421.1c10.4-37.3,82-77.7,119.3-67.3"/>
		<path class="st1" d="M515.1,555.7C492.9,497.1,547.4,376,606,353.8"/>
		<path class="st2" d="M515.1,555.7c-32.6-21.2-49.7-102-28.5-134.6"/>
		<path class="st2" d="M617.7,476.6c-26.9-22.2-34-95.9-11.8-122.8"/>
		<path class="st3" d="M617.7,476.6c-37.3,15.1-116-18.1-131.1-55.5"/>
		<path class="st4" d="M617.7,476.6C613,513,551.4,560.4,515,555.7"/>
		<path class="st5" d="M357.9,420c36.4-62.8,185.1-102.6,248-66.2"/>
		<path class="st4" d="M357.9,420c26-25.5,103.1-24.9,128.7,1.1"/>
		<path class="st4" d="M357.9,420c58.6-4.3,152.8,77.1,157.1,135.7"/>
		<path class="st6" d="M357.9,420c63.3-40.6,219.1-6.7,259.8,56.6"/>
		<path class="st5" d="M410.1,294.8c51-27.4,168.5,8.1,195.8,59"/>
		<path class="st5" d="M410.1,294.8c40.6,10,86.5,85.8,76.5,126.3"/>
		<path class="st7" d="M410.1,294.8c73.2,31.2,136.2,187.8,105,260.9"/>
		<path class="st6" d="M410.1,294.8c77.9-5.2,202.5,103.9,207.6,181.8"/>
		<path class="st7" d="M410.1,294.8c14.6,35.5-16.7,110.6-52.1,125.2"/>
		<path class="st8" d="M843.3,150.9c-6.9,88-149.3,209.8-237.3,202.9"/>
		<path class="st9" d="M843.3,150.9C826,276.3,612,438.4,486.7,421.1"/>
		<path class="st9" d="M843.3,150.9c15.3,146.6-181.6,389.5-328.2,404.8"/>
		<path class="st10" d="M837.8,362.7c-48.2,44.6-187.3,39.2-231.9-8.9"/>
		<path class="st11" d="M837.8,362.7c-41.3-43.4-38-170.5,5.5-211.8"/>
		<path class="st7" d="M738.2,518.1c-69.7,30.9-220.7-27.2-251.6-97"/>
		<path class="st7" d="M738.2,518.1c-37.1,52.2-171,74.8-223.2,37.6"/>
		<path class="st4" d="M738.2,518.1c-32.4,15.8-104.7-9.1-120.5-41.5"/>
		<path class="st12" d="M738.2,518.1c-52.4-94.4,10.6-314.7,105-367.2"/>
		<path class="st3" d="M658.3,633.9c-66.5-45.5-98-213.6-52.4-280.1"/>
		<path class="st5" d="M658.3,633.9c-76.9-8.2-180-135.9-171.7-212.8"/>
		<path class="st5" d="M658.3,633.9C614,646.9,528,600,515,555.7"/>
		<path class="st5" d="M658.3,633.9c-39.6-23.3-64-117.7-40.6-157.3"/>
		<path class="st12" d="M658.3,633.9c-59.6-133.6,51.4-423.3,185-483"/>
		<path class="st5" d="M658.3,633.9c-7.2-39.1,40.7-108.6,79.9-115.8"/>
		<path class="st13" d="M998.5,484.3c-53.8,0-168.9-88.6-160.7-121.6"/>
		<path class="st6" d="M396.2,573.8c-2.1-85.9,123.8-217.9,209.7-220"/>
		<path class="st5" d="M396.2,573.8c-12.5-48.6,41.8-140.2,90.4-152.7"/>
		<path class="st5" d="M396.2,573.8c20.2-27.4,91.5-38.2,118.9-18.1"/>
		<path class="st6" d="M396.2,573.8C421.1,510,554,451.7,617.7,476.6"/>
		<path class="st5" d="M396.2,573.8C357.8,550.7,334.8,458.4,358,420"/>
		<path class="st7" d="M396.2,573.8c-53-58.6-44.7-226,13.9-279"/>
		<path class="st7" d="M756.2,584c-76.1-16-166.3-154.1-150.3-230.2"/>
		<path class="st7" d="M756.2,584c-9.6,29.5-68.3,59.5-97.9,49.9"/>
		<path class="st14" d="M687.9,177.9c18.8,51.6-30.4,157.1-82,175.9"/>
		<path class="st15" d="M687.9,177.9c8.4,88.9-112.4,234.8-201.3,243.2"/>
		<path class="st9" d="M687.9,177.9c41,110.1-62.7,336.8-172.9,377.8"/>
		<path class="st16" d="M687.9,177.9c45.7,73.8,3.6,253-70.2,298.7"/>
		<path class="st9" d="M687.9,177.9c-17.6,114.4-215.6,259.7-330,242.1"/>
		<path class="st9" d="M687.9,177.9C655.7,256.9,489,327,410.1,294.8"/>
		<path class="st17" d="M687.9,177.9c25.7-36.5,118.9-52.7,155.3-27"/>
		<path class="st18" d="M687.9,177.9c66.9,7,156.9,117.9,149.9,184.8"/>
		<path class="st16" d="M687.9,177.9c78.1,58,108.3,262.1,50.3,340.2"/>
		<path class="st12" d="M687.9,177.9c85.3,97.1,67.5,370.7-29.6,456"/>
		<path class="st12" d="M687.9,177.9C708.8,315.5,533.7,553,396.2,573.8"/>
		<path class="st19" d="M981.7,407.5c-79-23.6-162-177.6-138.4-256.5"/>
		<path class="st20" d="M981.7,407.5c-37.7,19.8-124-7-143.9-44.7"/>
		<path class="st19" d="M981.7,407.5C877,420.3,700.8,282.6,688,178"/>
		<path class="st21" d="M869.8-1.1c25.1,35.7,9.1,126.9-26.6,152"/>
		<path class="st22" d="M869.8-1.1c66.4,79.2,47.1,297.5-32,363.8"/>
		<path class="st21" d="M869.8-1.1c-0.6,72.2-109.7,179.6-181.9,179"/>
		<path class="st23" d="M662.7-83.4C745.7-72.6,854,68,843.2,151"/>
		<path class="st24" d="M662.7-83.4C720-36.2,735.1,120.7,687.9,178"/>
		<path class="st25" d="M662.7-83.4c57.9-25,182.2,24.5,207.1,82.4"/>
		<path class="st21" d="M768.7-73.5c59.8,30,104.5,164.7,74.5,224.5"/>
		<path class="st21" d="M768.7-73.5C802.8-7,754.3,143.8,687.9,178"/>
		<path class="st26" d="M768.7-73.5c34.7-5.7,95.4,37.7,101.1,72.4"/>
		<path class="st26" d="M768.7-73.5c-23.2,19.2-86.8,13.3-106-9.9"/>
		<path class="st21" d="M855-120.4c26.3,93.1-74,272.1-167.1,298.4"/>
		<path class="st26" d="M855-120.4c26.8,20.9,35.7,92.5,14.8,119.3"/>
		<path class="st26" d="M855-120.4c-31.1,45.9-146.4,68-192.3,37"/>
		<path class="st26" d="M855-120.4c-7.9,26.6-59.6,54.7-86.3,46.9"/>
		<path class="st27" d="M715.1,22.2c51.4,0.1,128.3,77.3,128.2,128.7"/>
		<path class="st28" d="M715.1,22.2c25.7,36.6,9.4,130-27.1,155.7"/>
		<path class="st24" d="M715.1,22.2c-31.6-10.7-63-74-52.4-105.6"/>
		<path class="st23" d="M715.1,22.2c-8.4-29.9,23.8-87.3,53.6-95.7"/>
		<path class="st21" d="M715.1,22.2c-0.5-56.5,83.4-142.1,139.9-142.6"/>
		<path class="st29" d="M1022.5,180.5c-41.8,29.9-149.3,12.2-179.3-29.5"/>
		<path class="st28" d="M778.4,82.9c26.6,0.6,65.5,41.4,64.8,68"/>
		<path class="st30" d="M778.4,82.9c0.9,37.1-53.4,94.1-90.5,95"/>
		<path class="st24" d="M778.4,82.9c1.5-35.1,56.3-85.5,91.4-84"/>
		<path class="st24" d="M778.4,82.9c-33.2-29.3-39-123.2-9.7-156.4"/>
		<path class="st31" d="M778.4,82.9C753.6,83.4,715.6,47,715,22.2"/>
		<path class="st19" d="M1071.5,253c-66.1,25.2-203-36-228.2-102.1"/>
		<path class="st32" d="M1072.5,59c-27.5,64.2-165,119.4-229.2,92"/>
		<path class="st32" d="M998.1,0.6c-0.9,61-93.8,151.3-154.9,150.3"/>
		<path class="st32" d="M998.1,0.6c-26.6,97.5-212.7,203.9-310.2,177.3"/>
		<path class="st33" d="M998.1,0.6c26.6-3.2,71.2,31.8,74.4,58.4"/>
		<path class="st7" d="M756.1,430.3c-45.3,14.8-135.4-31.1-150.2-76.4"/>
		<path class="st34" d="M641.5,77.2c55.1-25.6,176.2,18.6,201.8,73.7"/>
		<path class="st29" d="M641.5,77.2c29.4,10.8,57.3,71.3,46.5,100.7"/>
		<path class="st18" d="M1006.9,311.1C942.1,311.8,844,215.7,843.2,151"/>
		<path class="st35" d="M1006.9,311.1c-23.5,44.2-125,75.1-169.1,51.7"/>
		<path class="st18" d="M1006.9,311.1c-90.4,37.2-281.8-42.7-319-133.1"/>
		<path class="st13" d="M1006.9,311.1c1.3-24.5,40.1-59.4,64.6-58.1"/>
		<path class="st24" d="M721.5-167.4c88,39.3,161.1,230.3,121.8,318.3"/>
		<path class="st25" d="M721.5-167.4c5,28.5-30.2,78.9-58.8,83.9"/>
		<path class="st25" d="M721.5-167.4c28.2,9.3,56.6,65.6,47.2,93.9"/>
		<path class="st24" d="M721.5-167.4c36.6,39.2,32.8,153-6.4,189.6"/>
		<path class="st36" d="M1197.6,25.7c-18.4,31.7-93.4,51.6-125.1,33.3"/>
		<path class="st37" d="M324.1,121.8c-33.2-61.1,8.5-202.5,69.6-235.8"/>
		<path class="st37" d="M324.1,121.8c14.2-56,119.4-118.6,175.3-104.5"/>
		<path class="st37" d="M324.1,121.8C277.4,116.7,215,38.9,220.2-7.8"/>
		<path class="st37" d="M393.6-114c47.4,5.1,110.9,83.9,105.8,131.3"/>
		<path class="st37" d="M499.4,17.3C438.5,68.1,271,53.1,220.2-7.8"/>
		<path class="st37" d="M220.2-7.8C233.7-63.7,337.7-127.4,393.6-114"/>
	</g>
	<g id="nodes">
		<circle class="st38" cx="605.9" cy="353.8" r="30.6"/>
		<circle class="st38" cx="486.6" cy="421.1" r="30.2"/>
		<circle class="st38" cx="515.1" cy="555.7" r="30.2"/>
		<circle class="st38" cx="617.7" cy="476.6" r="27.5"/>
		<circle class="st38" cx="357.9" cy="420" r="24.5"/>
		<circle class="st38" cx="410.1" cy="294.8" r="24.5"/>
		<circle class="st39" cx="843.3" cy="150.9" r="36"/>
		<circle class="st40" cx="837.8" cy="362.7" r="21.1"/>
		<circle class="st38" cx="738.2" cy="518.1" r="23.7"/>
		<circle class="st38" cx="658.3" cy="633.9" r="26.2"/>
		<circle class="st40" cx="1003.7" cy="484.3" r="10.4"/>
		<circle class="st38" cx="396.2" cy="573.8" r="24.5"/>
		<circle class="st38" cx="756.2" cy="584" r="13.2"/>
		<circle class="st39" cx="687.9" cy="177.9" r="41.2"/>
		<circle class="st40" cx="981.7" cy="407.5" r="16.8"/>
		<circle class="st41" cx="869.8" cy="-1.1" r="21.8"/>
		<circle class="st41" cx="662.7" cy="-83.4" r="21.5"/>
		<circle class="st41" cx="768.7" cy="-73.5" r="22.6"/>
		<circle class="st41" cx="855" cy="-120.4" r="18.2"/>
		<circle class="st39" cx="715.1" cy="22.2" r="21.3"/>
		<circle class="st39" cx="1022.5" cy="180.5" r="12.1"/>
		<circle class="st39" cx="778.4" cy="82.9" r="19.7"/>
		<circle class="st40" cx="1071.5" cy="253" r="13"/>
		<circle class="st42" cx="1072.5" cy="59" r="12.9"/>
		<circle class="st42" cx="998.1" cy="0.6" r="16"/>
		<circle class="st38" cx="756.1" cy="430.3" r="11.4"/>
		<circle class="st39" cx="641.5" cy="77.2" r="15.5"/>
		<circle class="st40" cx="1006.9" cy="311.1" r="17.3"/>
		<circle class="st41" cx="721.5" cy="-167.4" r="16.2"/>
		<circle class="st42" cx="1197.6" cy="25.7" r="9.6"/>
		<circle class="st43" cx="324.1" cy="121.8" r="9.5"/>
		<circle class="st43" cx="393.6" cy="-114" r="9.5"/>
		<circle class="st43" cx="499.4" cy="17.3" r="9.5"/>
		<circle class="st43" cx="220.2" cy="-7.8" r="9.5"/>
	</g>
	<g id="Labels">
		<g>
			<text transform="matrix(1 0 0 1 545.2501 311.1492)" class="st44 st45">Enjolras</text>
			<g class="st46">
				<text transform="matrix(1 0 0 1 545.2501 311.1492)" class="st47 st44 st45">Enjolras</text>
			</g>
			<text transform="matrix(1 0 0 1 545.2501 311.1492)" class="st44 st45">Enjolras</text>
		</g>
		<g>
			<text transform="matrix(1 0 0 1 403.0505 422.4218)" class="st44 st45">Combeferre</text>
			<g class="st46">
				<text transform="matrix(1 0 0 1 403.0505 422.4218)" class="st47 st44 st45">Combeferre</text>
			</g>
			<text transform="matrix(1 0 0 1 403.0505 422.4218)" class="st44 st45">Combeferre</text>
		</g>
		<g>
			<text transform="matrix(1 0 0 1 446.5948 570.8453)" class="st44 st45">Bossuet</text>
			<g class="st46">
				<text transform="matrix(1 0 0 1 446.5948 570.8453)" class="st47 st44 st45">Bossuet</text>
			</g>
			<text transform="matrix(1 0 0 1 446.5948 570.8453)" class="st44 st45">Bossuet</text>
		</g>
		<g>
			<text transform="matrix(1 0 0 1 557.91 488.3547)" class="st44 st45">Courfeyrac</text>
			<g class="st46">
				<text transform="matrix(1 0 0 1 557.91 488.3547)" class="st47 st44 st45">Courfeyrac</text>
			</g>
			<text transform="matrix(1 0 0 1 557.91 488.3547)" class="st44 st45">Courfeyrac</text>
		</g>
		<g>
			<text transform="matrix(1 0 0 1 171.5587 449.103)" class="st44 st48">Feuilly</text>
			<g class="st46">
				<text transform="matrix(1 0 0 1 171.5587 449.103)" class="st49 st44 st48">Feuilly</text>
			</g>
			<text transform="matrix(1 0 0 1 171.5587 449.103)" class="st44 st48">Feuilly</text>
		</g>
		<g>
			<text transform="matrix(1 0 0 1 188.8918 249.2119)" class="st44 st48">Insurgent  </text>
			<text transform="matrix(1 0 0 1 188.8918 284.2119)" class="st44 st48">workers</text>
			<g class="st46">
				<text transform="matrix(1 0 0 1 188.8918 249.2119)" class="st49 st44 st48">Insurgent  </text>
				<text transform="matrix(1 0 0 1 188.8918 284.2119)" class="st49 st44 st48">workers</text>
			</g>
			<text transform="matrix(1 0 0 1 188.8918 249.2119)" class="st44 st48">Insurgent </text>
			<text transform="matrix(1 0 0 1 188.8918 284.2119)" class="st44 st48">workers</text>
		</g>
		<g>
			<text transform="matrix(1 0 0 1 891.7524 147.9838)" class="st44 st50">Jean Valjean</text>
			<g class="st46">
				<text transform="matrix(1 0 0 1 891.7524 147.9838)" class="st51 st44 st50">Jean Valjean</text>
			</g>
			<text transform="matrix(1 0 0 1 891.7524 147.9838)" class="st44 st50">Jean Valjean</text>
		</g>
		<g>
			<text transform="matrix(1 0 0 1 868.7972 370.0418)" class="st44 st52">Javert</text>
			<g class="st46">
				<text transform="matrix(1 0 0 1 868.7972 370.0418)" class="st53 st44 st52">Javert</text>
			</g>
			<text transform="matrix(1 0 0 1 868.7972 370.0418)" class="st44 st52">Javert</text>
		</g>
		<g>
			<text transform="matrix(1 0 0 1 770.1843 534.8417)" class="st44 st54">Gavroche</text>
			<g class="st46">
				<text transform="matrix(1 0 0 1 770.1843 534.8417)" class="st55 st44 st54">Gavroche</text>
			</g>
			<text transform="matrix(1 0 0 1 770.1843 534.8417)" class="st44 st54">Gavroche</text>
		</g>
		<g>
			<text transform="matrix(1 0 0 1 612.3752 698.4847)" class="st44 st48">Government  </text>
			<text transform="matrix(1 0 0 1 612.3752 733.4847)" class="st44 st48">troops</text>
			<g class="st46">
				<text transform="matrix(1 0 0 1 612.3752 698.4847)" class="st49 st44 st48">Government  </text>
				<text transform="matrix(1 0 0 1 612.3752 733.4847)" class="st49 st44 st48">troops</text>
			</g>
			<text transform="matrix(1 0 0 1 612.3752 698.4847)" class="st44 st48">Government </text>
			<text transform="matrix(1 0 0 1 612.3752 733.4847)" class="st44 st48">troops</text>
		</g>
		<g>
			<text transform="matrix(1 0 0 1 1022.4637 494.7983)" class="st44 st56">Eponine</text>
			<g class="st46">
				<text transform="matrix(1 0 0 1 1022.4637 494.7983)" class="st57 st44 st56">Eponine</text>
			</g>
			<text transform="matrix(1 0 0 1 1022.4637 494.7983)" class="st44 st56">Eponine</text>
		</g>
		<g>
			<text transform="matrix(1 0 0 1 276.8674 585.9655)" class="st44 st48">Joly</text>
			<g class="st46">
				<text transform="matrix(1 0 0 1 276.8674 585.9655)" class="st49 st44 st48">Joly</text>
			</g>
			<text transform="matrix(1 0 0 1 276.8674 585.9655)" class="st44 st48">Joly</text>
		</g>
		<g>
			<text transform="matrix(1 0 0 1 775.9115 598.6457)" class="st44 st58">Grantaire</text>
			<g class="st46">
				<text transform="matrix(1 0 0 1 775.9115 598.6457)" class="st59 st44 st58">Grantaire</text>
			</g>
			<text transform="matrix(1 0 0 1 775.9115 598.6457)" class="st44 st58">Grantaire</text>
		</g>
		<g>
			<text transform="matrix(1 0 0 1 455.5767 192.6451)" class="st44 st60">Marius</text>
			<g class="st46">
				<text transform="matrix(1 0 0 1 455.5767 192.6451)" class="st61 st44 st60">Marius</text>
			</g>
			<text transform="matrix(1 0 0 1 455.5767 192.6451)" class="st44 st60">Marius</text>
		</g>
		<g>
			<text transform="matrix(1 0 0 1 1010.3909 421.531)" class="st44 st62">Javert&apos;s coachman</text>
			<g class="st46">
				<text transform="matrix(1 0 0 1 1010.3909 421.531)" class="st63 st44 st62">Javert&apos;s coachman</text>
			</g>
			<text transform="matrix(1 0 0 1 1010.3909 421.531)" class="st44 st62">Javert&apos;s coachman</text>
		</g>
		<g>
			<text transform="matrix(1 0 0 1 645.1503 -17.255)" class="st44 st54">Concierge, Gillenormand</text>
			<g class="st46">
				<text transform="matrix(1 0 0 1 645.1503 -17.255)" class="st55 st44 st54">Concierge, Gillenormand</text>
			</g>
			<text transform="matrix(1 0 0 1 645.1503 -17.255)" class="st44 st54">Concierge, Gillenormand</text>
		</g>
		<g>
			<text transform="matrix(1 0 0 1 496.8456 -71.9987)" class="st44 st54">Basque</text>
			<g class="st46">
				<text transform="matrix(1 0 0 1 496.8456 -71.9987)" class="st55 st44 st54">Basque</text>
			</g>
			<text transform="matrix(1 0 0 1 496.8456 -71.9987)" class="st44 st54">Basque</text>
		</g>
		<g>
			<text transform="matrix(1 0 0 1 791.2504 -57.7048)" class="st44 st54">Mlle Gillenormand</text>
			<g class="st46">
				<text transform="matrix(1 0 0 1 791.2504 -57.7048)" class="st55 st44 st54">Mlle Gillenormand</text>
			</g>
			<text transform="matrix(1 0 0 1 791.2504 -57.7048)" class="st44 st54">Mlle Gillenormand</text>
		</g>
		<g>
			<text transform="matrix(1 0 0 1 870.9926 -135.8975)" class="st44 st62">Doctor, Gillenormand</text>
			<g class="st46">
				<text transform="matrix(1 0 0 1 870.9926 -135.8975)" class="st63 st44 st62">Doctor, Gillenormand</text>
			</g>
			<text transform="matrix(1 0 0 1 870.9926 -135.8975)" class="st44 st62">Doctor, Gillenormand</text>
		</g>
		<g>
			<text transform="matrix(1 0 0 1 533.8545 43.545)" class="st44 st54">M. Gillenormand</text>
			<g class="st46">
				<text transform="matrix(1 0 0 1 533.8545 43.545)" class="st55 st44 st54">M. Gillenormand</text>
			</g>
			<text transform="matrix(1 0 0 1 533.8545 43.545)" class="st44 st54">M. Gillenormand</text>
		</g>
		<g>
			<text transform="matrix(1 0 0 1 1045.3495 188.646)" class="st44 st64">Boulatruelle</text>
			<g class="st46">
				<text transform="matrix(1 0 0 1 1045.3495 188.646)" class="st65 st44 st64">Boulatruelle</text>
			</g>
			<text transform="matrix(1 0 0 1 1045.3495 188.646)" class="st44 st64">Boulatruelle</text>
		</g>
		<g>
			<text transform="matrix(1 0 0 1 736.1502 100.0952)" class="st44 st52">Cosette</text>
			<g class="st46">
				<text transform="matrix(1 0 0 1 736.1502 100.0952)" class="st53 st44 st52">Cosette</text>
			</g>
			<text transform="matrix(1 0 0 1 736.1502 100.0952)" class="st44 st52">Cosette</text>
		</g>
		<g>
			<text transform="matrix(1 0 0 1 1092.5397 264.0147)" class="st44 st58">Azelma</text>
			<g class="st46">
				<text transform="matrix(1 0 0 1 1092.5397 264.0147)" class="st59 st44 st58">Azelma</text>
			</g>
			<text transform="matrix(1 0 0 1 1092.5397 264.0147)" class="st44 st58">Azelma</text>
		</g>
		<g>
			<text transform="matrix(1 0 0 1 940.3049 88.467)" class="st44 st58">Concierge, l&apos;Homme Armé</text>
			<g class="st46">
				<text transform="matrix(1 0 0 1 940.3049 88.467)" class="st59 st44 st58">Concierge, l&apos;Homme Armé</text>
			</g>
			<text transform="matrix(1 0 0 1 940.3049 88.467)" class="st44 st58">Concierge, l&apos;Homme Armé</text>
		</g>
		<g>
			<text transform="matrix(1 0 0 1 932.8 33.8452)" class="st44 st66">Doctor, Valjean</text>
			<g class="st46">
				<text transform="matrix(1 0 0 1 932.8 33.8452)" class="st67 st44 st66">Doctor, Valjean</text>
			</g>
			<text transform="matrix(1 0 0 1 932.8 33.8452)" class="st44 st66">Doctor, Valjean</text>
		</g>
		<g>
			<text transform="matrix(1 0 0 1 778.2045 427.3449)" class="st44 st64">Anonymous  </text>
			<text transform="matrix(1 0 0 1 778.2045 447.3449)" class="st44 st64">worker</text>
			<g class="st46">
				<text transform="matrix(1 0 0 1 778.2045 427.3449)" class="st65 st44 st64">Anonymous  </text>
				<text transform="matrix(1 0 0 1 778.2045 447.3449)" class="st65 st44 st64">worker</text>
			</g>
			<text transform="matrix(1 0 0 1 778.2045 427.3449)" class="st44 st64">Anonymous  </text>
			<text transform="matrix(1 0 0 1 778.2045 447.3449)" class="st44 st64">worker</text>
		</g>
		<g>
			<text transform="matrix(1 0 0 1 469.9496 86.6185)" class="st44 st66">Sewermen</text>
			<g class="st46">
				<text transform="matrix(1 0 0 1 469.9496 86.6185)" class="st67 st44 st66">Sewermen</text>
			</g>
			<text transform="matrix(1 0 0 1 469.9496 86.6185)" class="st44 st66">Sewermen</text>
		</g>
		<g>
			<text transform="matrix(1 0 0 1 1034.1299 328.3864)" class="st44 st62">Thénardier</text>
			<g class="st46">
				<text transform="matrix(1 0 0 1 1034.1299 328.3864)" class="st63 st44 st62">Thénardier</text>
			</g>
			<text transform="matrix(1 0 0 1 1034.1299 328.3864)" class="st44 st62">Thénardier</text>
		</g>
		<g>
			<text transform="matrix(1 0 0 1 550.957 -159.3441)" class="st44 st66">Nicolette</text>
			<g class="st46">
				<text transform="matrix(1 0 0 1 550.957 -159.3441)" class="st67 st44 st66">Nicolette</text>
			</g>
			<text transform="matrix(1 0 0 1 550.957 -159.3441)" class="st44 st66">Nicolette</text>
		</g>
		<g>
			<text transform="matrix(1 0 0 1 1100.2805 9.8188)" class="st44 st56">Concierge&apos;s husband</text>
			<g class="st46">
				<text transform="matrix(1 0 0 1 1100.2805 9.8188)" class="st57 st44 st56">Concierge&apos;s husband</text>
			</g>
			<text transform="matrix(1 0 0 1 1100.2805 9.8188)" class="st44 st56">Concierge&apos;s husband</text>
		</g>
		<g>
			<text transform="matrix(1 0 0 1 248.9698 153.5594)" class="st44 st56">Bourgeois man</text>
			<g class="st46">
				<text transform="matrix(1 0 0 1 248.9698 153.5594)" class="st57 st44 st56">Bourgeois man</text>
			</g>
			<text transform="matrix(1 0 0 1 248.9698 153.5594)" class="st44 st56">Bourgeois man</text>
		</g>
		<g>
			<text transform="matrix(1 0 0 1 320.5105 -134.8975)" class="st44 st56">Bourgeois son</text>
			<g class="st46">
				<text transform="matrix(1 0 0 1 320.5105 -134.8975)" class="st57 st44 st56">Bourgeois son</text>
			</g>
			<text transform="matrix(1 0 0 1 320.5105 -134.8975)" class="st44 st56">Bourgeois son</text>
		</g>
		<g>
			<text transform="matrix(1 0 0 1 403.1098 -3.7761)" class="st44 st56">Older child</text>
			<g class="st46">
				<text transform="matrix(1 0 0 1 403.1098 -3.7761)" class="st57 st44 st56">Older child</text>
			</g>
			<text transform="matrix(1 0 0 1 403.1098 -3.7761)" class="st44 st56">Older child</text>
		</g>
		<g>
			<text transform="matrix(1 0 0 1 160.6643 -25.6157)" class="st44 st56">Younger child</text>
			<g class="st46">
				<text transform="matrix(1 0 0 1 160.6643 -25.6157)" class="st57 st44 st56">Younger child</text>
			</g>
			<text transform="matrix(1 0 0 1 160.6643 -25.6157)" class="st44 st56">Younger child</text>
		</g>
	</g>
</g>
</svg>
